<?xml version="1.0" encoding="utf-8"?>
<!-- Generator: Adobe Illustrator 16.0.0, SVG Export Plug-In . SVG Version: 6.00 Build 0)  -->
<!DOCTYPE svg PUBLIC "-//W3C//DTD SVG 1.1//EN" "http://www.w3.org/Graphics/SVG/1.1/DTD/svg11.dtd">
<svg version="1.1" xmlns="http://www.w3.org/2000/svg" xmlns:xlink="http://www.w3.org/1999/xlink" x="0px" y="0px"
	 width="994.221px" height="994.22px" viewBox="0 0 994.221 994.22" enable-background="new 0 0 994.221 994.22"
	 xml:space="preserve">
<g id="Layer_1_copy" display="none">
	<rect display="inline" fill="#191919" width="994.221" height="994.22"/>
	<text transform="matrix(1 0 0 1 131.7056 485.1592)" display="inline"><tspan x="0" y="0" fill="#F1F2F2" font-family="'KeepCalm-Medium'" font-size="567.8443">ko</tspan><tspan x="-15.899" y="490" fill="#F1F2F2" font-family="'KeepCalm-Medium'" font-size="567.8443">de</tspan></text>
</g>
<g id="Layer_1">
	<rect display="none" fill="#191919" width="994.221" height="994.22"/>
	<g>
		<path fill="#F7F7F7" d="M487.175,485.159h-97.101l-131.74-147.072v147.072h-83.473V14.417h83.473v281.65l114.705-139.122h95.397
			L333.857,316.509L487.175,485.159z"/>
		<path fill="#F7F7F7" d="M836.396,321.052c0,24.612-4.542,47.415-13.628,68.425c-9.085,21.01-21.578,39.181-37.478,54.513
			c-15.899,15.332-34.55,27.452-55.933,36.342c-21.392,8.891-44.203,13.345-68.426,13.345c-24.23,0-46.944-4.454-68.141-13.345
			c-21.206-8.89-39.749-21.099-55.649-36.625c-15.899-15.518-28.392-33.787-37.478-54.797c-9.085-21.01-13.628-43.626-13.628-67.857
			c0-23.85,4.631-46.279,13.912-67.29c9.271-21.01,21.862-39.368,37.762-55.081c15.899-15.704,34.443-28.011,55.648-36.91
			c21.196-8.891,43.725-13.344,67.573-13.344c24.223,0,47.034,4.454,68.426,13.344c21.383,8.899,40.033,21.01,55.933,36.342
			c15.899,15.332,28.393,33.601,37.478,54.797C831.854,274.116,836.396,296.83,836.396,321.052z M754.626,321.052
			c0-14.001-2.457-27.062-7.364-39.181c-4.906-12.111-11.604-22.714-20.096-31.799s-18.402-16.184-29.724-21.294
			c-11.321-5.11-23.396-7.666-36.227-7.666c-12.829,0-24.914,2.555-36.235,7.666c-11.321,5.111-21.232,12.209-29.723,21.294
			c-8.491,9.085-15.19,19.688-20.097,31.799c-4.906,12.12-7.355,25.18-7.355,39.181c0,14.01,2.449,27.07,7.355,39.181
			c4.906,12.12,11.605,22.714,20.097,31.799c8.49,9.085,18.401,16.184,29.723,21.294c11.321,5.111,23.406,7.666,36.235,7.666
			c12.83,0,24.905-2.555,36.227-7.666c11.321-5.11,21.232-12.208,29.724-21.294s15.189-19.679,20.096-31.799
			C752.169,348.123,754.626,335.062,754.626,321.052z"/>
		<path fill="#F7F7F7" d="M454.241,975.159h-83.473v-17.035c-10.603,8.713-22.146,15.048-34.638,19.022
			c-12.493,3.975-25.749,5.963-39.749,5.963c-23.096,0-44.292-4.641-63.599-13.912c-19.307-9.272-35.97-21.765-49.97-37.479
			c-14.01-15.704-24.896-33.973-32.651-54.797c-7.763-20.814-11.641-42.774-11.641-65.87c0-24.604,4.445-47.415,13.344-68.425
			c8.89-21.01,20.727-39.27,35.49-54.797c14.764-15.519,31.604-27.727,50.538-36.626c18.925-8.891,38.418-13.345,58.488-13.345
			c14,0,27.629,1.899,40.885,5.679c13.247,3.789,24.604,9.086,34.07,15.899V503.849h82.905V975.159z M371.904,887.144V729.282
			c-3.797-2.644-8.171-5.199-13.114-7.665c-4.942-2.458-10.07-4.543-15.385-6.247c-5.324-1.703-10.638-3.025-15.962-3.975
			c-5.323-0.94-10.07-1.42-14.249-1.42c-13.682,0-26.121,2.369-37.336,7.099c-11.215,4.737-20.993,11.552-29.351,20.442
			c-8.358,8.899-14.817,19.591-19.377,32.083s-6.841,26.316-6.841,41.452c0,14.765,2.28,28.304,6.841,40.602
			c4.561,12.306,10.824,22.909,18.81,31.799c7.977,8.899,17.568,15.812,28.783,20.727c11.206,4.924,23.459,7.382,36.759,7.382
			C333.14,911.561,353.28,903.425,371.904,887.144z"/>
		<path fill="#F7F7F7" d="M861.38,810.484c0,5.306-0.283,10.789-0.852,16.468c-0.567,5.678-1.233,11.552-1.987,17.603H596.197
			c3.025,9.468,7.284,18.455,12.776,26.973c5.483,8.518,12.209,15.899,20.158,22.146c7.95,6.246,16.938,11.17,26.973,14.764
			c10.026,3.603,21.099,5.395,33.219,5.395c14.765,0,29.528-2.556,44.292-7.666s27.062-12.014,36.91-20.727l51.674,51.674
			c-22.714,17.036-44.957,29.058-66.722,36.059c-21.773,7-44.771,10.505-68.993,10.505c-24.612,0-47.61-4.543-68.993-13.628
			c-21.392-9.086-39.944-21.383-55.648-36.91c-15.714-15.519-28.108-33.787-37.194-54.797c-9.085-21.011-13.628-43.44-13.628-67.29
			c0-23.849,4.543-46.279,13.628-67.289c9.086-21.011,21.578-39.271,37.478-54.797c15.9-15.519,34.443-27.824,55.649-36.91
			c21.196-9.085,43.91-13.628,68.141-13.628c23.087,0,45.232,4.259,66.438,12.776c21.196,8.518,39.936,20.354,56.216,35.49
			c16.272,15.146,29.146,33.219,38.614,54.229C856.643,761.934,861.38,785.127,861.38,810.484z M775.636,778.685
			c-6.441-20.814-17.887-37.566-34.354-50.254c-16.468-12.679-35.117-19.022-55.933-19.022c-20.442,0-38.809,6.344-55.081,19.022
			c-16.281,12.688-27.638,29.439-34.07,50.254H775.636z"/>
	</g>
</g>
</svg>
